<svg width="47" height="42" viewBox="0 0 47 42" fill="none" xmlns="http://www.w3.org/2000/svg">
<path d="M5.73882 28.5103C5.74132 29.2604 5.97635 29.9912 6.41153 30.6021C6.84671 31.2131 7.46063 31.674 8.16871 31.9215C8.54387 32.0523 8.93825 32.1195 9.33555 32.1204L37.3761 32.1998C38.3288 32.1999 39.2427 31.8219 39.9171 31.1489C40.5914 30.4759 40.9712 29.5628 40.9731 28.6101L40.9738 13.3175C40.9713 12.5674 40.7363 11.8366 40.3011 11.2256C39.8659 10.6147 39.252 10.1538 38.5439 9.9063C38.1687 9.77553 37.7744 9.70831 37.3771 9.70742L9.33651 9.62798C8.38378 9.62792 7.46994 10.0059 6.79556 10.6789C6.12119 11.3519 5.74138 12.2649 5.7395 13.2177L5.73882 28.5103ZM8.06561 11.9524C8.23112 11.7855 8.42815 11.6532 8.64526 11.5631C8.86236 11.4731 9.0952 11.4271 9.33024 11.4279L37.3708 11.5074C37.5684 11.5077 37.7646 11.5411 37.9513 11.6061C38.3076 11.7295 38.6169 11.9605 38.8362 12.2673C39.0555 12.5741 39.174 12.9415 39.1753 13.3186L39.1747 28.6112C39.1727 29.0856 38.9831 29.54 38.6473 29.8751C38.3115 30.2102 37.8568 30.3989 37.3824 30.3999L9.34184 30.3204C9.14425 30.3201 8.94811 30.2867 8.76151 30.2217C8.40512 30.0984 8.09586 29.8673 7.87654 29.5605C7.65722 29.2537 7.53867 28.8863 7.53729 28.5092L7.53793 13.2166C7.53781 12.9814 7.58438 12.7486 7.67497 12.5315C7.76555 12.3145 7.89834 12.1177 8.06561 11.9524Z" fill="#354342"/>
<path d="M11.3926 14.7961L21.4129 21.4293C22.0359 21.8424 22.767 22.0625 23.5145 22.0621C24.262 22.0617 24.9928 21.8409 25.6154 21.4272L35.439 14.9165C35.5376 14.8513 35.6223 14.7674 35.6884 14.6695C35.7545 14.5715 35.8006 14.4616 35.8242 14.3458C35.8478 14.2301 35.8483 14.1108 35.8258 13.9949C35.8033 13.8789 35.7582 13.7685 35.693 13.67C35.6279 13.5715 35.5439 13.4868 35.446 13.4207C35.3481 13.3546 35.2382 13.3085 35.1224 13.2849C35.0067 13.2613 34.8874 13.2607 34.7715 13.2832C34.6555 13.3057 34.5451 13.3509 34.4466 13.416L24.623 19.9267C24.2944 20.1447 23.9088 20.2611 23.5145 20.2613C23.1202 20.2614 22.7345 20.1454 22.4057 19.9277L12.3854 13.2945C12.1863 13.1635 11.9434 13.1169 11.7099 13.1648C11.4764 13.2127 11.2714 13.3512 11.14 13.5501C11.0085 13.7489 10.9613 13.9917 11.0086 14.2253C11.056 14.4589 11.1941 14.6642 11.3926 14.7961ZM27.8163 22.5371C27.6823 22.7345 27.6322 22.9771 27.677 23.2115C27.7218 23.4459 27.8579 23.6529 28.0552 23.7871L33.8297 27.7074C34.0273 27.8408 34.2697 27.8904 34.5038 27.8452C34.7379 27.8001 34.9445 27.6639 35.0783 27.4665C35.2121 27.2692 35.2621 27.0269 35.2174 26.7927C35.1727 26.5585 35.0369 26.3516 34.8399 26.2175L29.0654 22.2971C28.8679 22.1633 28.6254 22.1135 28.3912 22.1585C28.1569 22.2035 27.9502 22.3397 27.8163 22.5371ZM17.934 22.0622L11.9107 25.6811C11.8086 25.7414 11.7193 25.8213 11.6482 25.9163C11.577 26.0112 11.5253 26.1193 11.4961 26.2343C11.4669 26.3493 11.4607 26.4689 11.478 26.5863C11.4952 26.7037 11.5355 26.8165 11.5965 26.9183C11.6575 27.0201 11.738 27.1088 11.8334 27.1793C11.9289 27.2498 12.0373 27.3007 12.1525 27.3291C12.2677 27.3576 12.3874 27.3629 12.5046 27.3449C12.6219 27.3269 12.7345 27.2858 12.8358 27.2241L18.859 23.6053C18.9612 23.545 19.0505 23.465 19.1216 23.3701C19.1928 23.2751 19.2444 23.1671 19.2736 23.0521C19.3029 22.9371 19.309 22.8174 19.2918 22.7C19.2746 22.5826 19.2343 22.4698 19.1733 22.368C19.1123 22.2663 19.0318 22.1776 18.9363 22.1071C18.8409 22.0366 18.7325 21.9857 18.6173 21.9572C18.5021 21.9288 18.3824 21.9234 18.2651 21.9415C18.1479 21.9595 18.0353 22.0005 17.934 22.0622Z" fill="#354342"/>
</svg>
